<!DOCTYPE svg PUBLIC "-//W3C//DTD SVG 1.1//EN" "http://www.w3.org/Graphics/SVG/1.1/DTD/svg11.dtd">
<!-- Uploaded to: SVG Repo, www.svgrepo.com, Transformed by: SVG Repo Mixer Tools -->
<svg width="256px" height="256px" viewBox="0 0 48.00 48.00" fill="none" xmlns="http://www.w3.org/2000/svg">
<g id="SVGRepo_bgCarrier" stroke-width="0">
<path transform="translate(0, 0), scale(3)" fill="#a8b4b8" d="M9.166.33a2.25 2.25 0 00-2.332 0l-5.25 3.182A2.25 2.25 0 00.5 5.436v5.128a2.25 2.25 0 001.084 1.924l5.25 3.182a2.25 2.25 0 002.332 0l5.25-3.182a2.25 2.25 0 001.084-1.924V5.436a2.25 2.25 0 00-1.084-1.924L9.166.33z" strokewidth="0"/>
</g>
<g id="SVGRepo_tracerCarrier" stroke-linecap="round" stroke-linejoin="round"/>
<g id="SVGRepo_iconCarrier"> <path d="M27 14L9 21.9H39L34 15" stroke="#000000" stroke-width="4" stroke-linecap="round" stroke-linejoin="round"/> <circle cx="31" cy="13" r="4" fill="white" stroke="#000000" stroke-width="4"/> <path d="M33 9L35 4" stroke="#000000" stroke-width="4" stroke-linecap="round"/> <path d="M9.5 26.9568C8.89836 27.2576 8.33775 27.577 7.82243 27.9131C5.41836 29.481 4 31.4118 4 33.5C4 38.7467 12.9543 43 24 43C35.0457 43 44 38.7467 44 33.5C44 31.3609 42.5116 29.387 40 27.7991" stroke="#000000" stroke-width="4"/> <rect x="9" y="22" width="30" height="12" fill="#787878" stroke="#000000" stroke-width="4" stroke-linecap="round" stroke-linejoin="round"/> <path d="M9 22H40" stroke="#000000" stroke-width="4"/> </g>
</svg>